# xmcd CD database file
#
# Track frame offsets:
#	150
#	16226
#	30815
#	45509
#	56899
#	68980
#	82543
#	101429
#	123307
#	141566
#	155934
#	175930
#	194033
#	210177
#
# Disc length: 3016 seconds
#
# Revision: 1
# Processed by: cddbd v1.5.2PL0 Copyright (c) Steve Scherf et al.
# Submitted via: CDex 1.51
#
DISCID=b90bc60e
DTITLE=Gillette Brothers - Ridin' With Dayton
DYEAR=2003
DGENRE=Country
TTITLE0=Summer Rain
TTITLE1=Ridin' With Dayton
TTITLE2=Down The Old Road To Home
TTITLE3=Camp Street Shuffle
TTITLE4=Brown-Eyed Lee
TTITLE5=Beautiful Dreamer
TTITLE6=How Long
TTITLE7=I Never Felt More Like Singin' The Blues
TTITLE8=Hard Times
TTITLE9=Oh Rounder
TTITLE10=Needed Time
TTITLE11=K. C. Moan
TTITLE12=Stand By Me
TTITLE13=Pleasant And Delightful
EXTD=YEAR: 2003
EXTT0=
EXTT1=
EXTT2=
EXTT3=
EXTT4=
EXTT5=
EXTT6=
EXTT7=
EXTT8=
EXTT9=
EXTT10=
EXTT11=
EXTT12=
EXTT13=
PLAYORDER=
